<?xml version="1.0" encoding="iso-8859-1"?>
<!-- Generator: Adobe Illustrator 19.0.0, SVG Export Plug-In . SVG Version: 6.00 Build 0)  -->
<svg version="1.1" id="Layer_1" xmlns="http://www.w3.org/2000/svg" xmlns:xlink="http://www.w3.org/1999/xlink" x="0px" y="0px"
	 viewBox="0 0 455 455" style="enable-background:new 0 0 455 455;" xml:space="preserve">
<path style="fill-rule:evenodd;clip-rule:evenodd;" d="M0,0v455h455V0H0z M251.83,297.635c-19.57,0-37.973-10.516-44.227-22.557
	c0,0-10.516,41.691-12.71,49.78c-7.84,28.437-30.926,56.874-32.684,59.176c-1.229,1.649-4.013,1.105-4.324-1.026
	c-0.482-3.656-6.379-39.497,0.545-68.728c3.469-14.701,23.272-98.627,23.272-98.627s-5.771-11.543-5.771-28.624
	c0-26.85,15.556-46.856,34.939-46.856c16.474,0,24.377,12.337,24.377,27.177c0,16.521-10.516,41.318-15.977,64.216
	c-4.511,19.212,9.598,34.831,28.546,34.831c34.332,0,57.371-43.993,57.371-96.138c0-39.684-26.678-69.397-75.292-69.397
	c-54.867,0-89.075,40.96-89.075,86.649c0,15.805,4.667,26.928,11.963,35.499c3.345,4.014,3.765,5.585,2.613,10.143
	c-0.917,3.344-2.862,11.309-3.765,14.529c-1.151,4.559-4.931,6.191-9.053,4.496c-25.217-10.329-37.009-37.989-37.009-69.164
	C105.569,131.619,148.832,70,234.874,70c69.101,0,114.557,50.013,114.557,103.667C349.431,244.635,309.995,297.635,251.83,297.635z"
	/>
<g>
</g>
<g>
</g>
<g>
</g>
<g>
</g>
<g>
</g>
<g>
</g>
<g>
</g>
<g>
</g>
<g>
</g>
<g>
</g>
<g>
</g>
<g>
</g>
<g>
</g>
<g>
</g>
<g>
</g>
</svg>
