<?xml version="1.0" ?><!DOCTYPE svg  PUBLIC '-//W3C//DTD SVG 1.1//EN'  'http://www.w3.org/Graphics/SVG/1.1/DTD/svg11.dtd'><svg height="128px" width="128px" style="enable-background:new 0 0 128 128;" version="1.1" viewBox="0 0 128 128"  xml:space="preserve" xmlns="http://www.w3.org/2000/svg" xmlns:xlink="http://www.w3.org/1999/xlink"><g><path class="fill" d="M88.022,105.837c0.032-0.015,0.065-0.029,0.099-0.044l-0.097-0.096C88.024,105.743,88.022,105.791,88.022,105.837z"/><path class="fill" d="M24.748,47.218V71.7h4.916V38.955c-1.957,2.555-3.32,5.572-3.889,8.859C25.439,47.599,25.104,47.401,24.748,47.218z"/><path class="fill" d="M14.906,46.191v25.006c1.165,0.325,2.39,0.503,3.653,0.503h1.27V45.75c-0.424-0.036-0.847-0.059-1.277-0.059   C17.285,45.691,16.065,45.867,14.906,46.191z"/><path class="fill" d="M108.709,43.216c-2.056,0-3.746,0.426-5.532,1.191c-1.28-12.49-11.879-22.244-24.927-22.244   c-6.381,0-12.183,2.336-16.604,6.196V71.7h46.739v-0.057c9.84-0.63,14.277-6.734,14.277-14.184   C122.662,49.591,116.716,43.216,108.709,43.216z"/><path class="fill" d="M5.338,58.696c0,3.965,1.805,7.511,4.651,9.903V48.795C7.143,51.179,5.338,54.731,5.338,58.696z"/><path class="fill" d="M51.806,31.583V71.7h7.38V30.829c-0.808,0.927-1.548,1.92-2.209,2.957C55.37,32.833,53.641,32.083,51.806,31.583z"/><path class="fill" d="M34.587,71.7h4.919V31.928c-1.757,0.592-3.41,1.416-4.919,2.422V71.7z"/><path class="fill" d="M44.423,30.91V71.7h4.925v-40.64c-1.01-0.15-2.049-0.228-3.104-0.228C45.627,30.833,45.021,30.861,44.423,30.91z"/></g></svg>