<?xml version="1.0" ?><!DOCTYPE svg  PUBLIC '-//W3C//DTD SVG 1.1//EN'  'http://www.w3.org/Graphics/SVG/1.1/DTD/svg11.dtd'><svg height="128px" width="128px" style="enable-background:new 0 0 128 128;" version="1.1" viewBox="0 0 128 128"  xml:space="preserve" xmlns="http://www.w3.org/2000/svg" xmlns:xlink="http://www.w3.org/1999/xlink"><g><path class="fill" d="M95.944,86.07c0-1.567-1.292-2.848-2.865-2.848H92.69c-1.574,0-2.86,1.28-2.86,2.848l-0.029,3.525h6.073L95.944,86.07z"/><path class="fill" d="M76.082,48.926c0.328,0.806,0.842,1.455,1.542,1.948c0.685,0.481,1.568,0.728,2.621,0.728c0.923,0,1.742-0.25,2.453-0.766   c0.711-0.513,1.312-1.277,1.8-2.3l-0.122,2.517h7.141V20.677h-5.623v23.641c0,1.278-1.057,2.326-2.345,2.326   c-1.28,0-2.34-1.048-2.34-2.326V20.677h-5.867v20.486c0,2.61,0.046,4.351,0.125,5.232C75.551,47.273,75.751,48.113,76.082,48.926z"/><path class="fill" d="M54.438,39.812c0,2.662,0.127,4.66,0.397,5.989c0.267,1.328,0.708,2.47,1.341,3.406c0.625,0.934,1.501,1.639,2.633,2.106   c1.129,0.469,2.502,0.693,4.128,0.693c1.46,0,2.749-0.267,3.875-0.814c1.117-0.542,2.038-1.392,2.752-2.525   c0.723-1.146,1.19-2.371,1.405-3.69c0.217-1.315,0.331-3.39,0.331-6.206V31.09c0-2.227-0.116-3.88-0.357-4.973   c-0.235-1.08-0.674-2.138-1.324-3.166c-0.633-1.022-1.553-1.852-2.738-2.49c-1.184-0.634-2.601-0.959-4.252-0.959   c-1.962,0-3.579,0.497-4.842,1.496c-1.263,0.988-2.14,2.306-2.625,3.94c-0.481,1.641-0.725,3.917-0.725,6.832V39.812z    M60.029,27.668c0-1.718,1.283-3.123,2.842-3.123c1.559,0,2.833,1.405,2.833,3.123v16.171c0,1.718-1.274,3.122-2.833,3.122   c-1.559,0-2.842-1.404-2.842-3.122V27.668z"/><path class="fill" d="M73.106,82.039c-1.536,0-2.795,1.037-2.795,2.303v17.145c0,1.266,1.26,2.297,2.795,2.297c1.547,0,2.807-1.031,2.807-2.297   V84.342C75.914,83.076,74.654,82.039,73.106,82.039z"/><polygon class="fill" points="40.263,52.001 47.003,52.001 47.009,28.705 54.972,8.75 47.602,8.75 43.369,23.575 39.076,8.711 31.784,8.711    40.254,28.719  "/><path class="fill" d="M94.998,58.226H33.002c-8.296,0-15.078,6.403-15.078,14.226v32.614c0,7.822,6.781,14.224,15.078,14.224h61.995   c8.293,0,15.078-6.401,15.078-14.224V72.451C110.075,64.629,103.291,58.226,94.998,58.226z M30.727,108.605v-34.45l-6.395-0.019   v-5.005l20.486,0.032v5.091l-7.685-0.003l0.003,34.354H30.727z M60.174,108.596l-5.144-0.007l0.012-3.787   c-1.382,2.969-6.91,5.358-9.789,3.278c-1.55-1.107-1.492-3.052-1.649-4.72c-0.084-0.944-0.018-3.024-0.02-5.81l-0.023-18.18h6.372   l0.029,18.469c0.003,2.521-0.133,3.989,0.021,4.478c0.912,2.777,3.254,1.268,3.776-0.154c0.168-0.468,0.009-1.794,0.009-4.449   V79.371h6.407V108.596z M69.725,105.832l-0.479,2.441l-5.263,0.076l0.032-39.181l6.401-0.009l-0.026,11.352   c5.914-4.709,10.265-1.225,10.271,4.596l0.012,15.27C80.683,107.776,76.454,112.007,69.725,105.832z M84.535,98.374v-9.103   c0-2.733,0.27-4.88,0.816-6.453c0.542-1.575,1.472-2.746,2.691-3.622c3.881-2.802,11.562-1.934,12.349,3.54   c0.25,1.729,0.328,4.754,0.328,7.78v4.14H89.717v3.808v2.948v0.297c0,1.434,1.185,2.603,2.627,2.603h0.94   c1.44,0,2.625-1.169,2.625-2.603v-2.68c0.002-0.239,0.011-0.46,0.011-0.651l4.807-0.024   C102.917,111.37,84.535,113.51,84.535,98.374z"/></g></svg>