<?xml version="1.0" encoding="UTF-8" standalone="no"?>
<svg
   xmlns:dc="http://purl.org/dc/elements/1.1/"
   xmlns:cc="http://creativecommons.org/ns#"
   xmlns:rdf="http://www.w3.org/1999/02/22-rdf-syntax-ns#"
   xmlns:svg="http://www.w3.org/2000/svg"
   xmlns="http://www.w3.org/2000/svg"
   viewBox="0 0 1149.6267 744.70667"
   height="744.70667"
   width="1149.6267"
   xml:space="preserve"
   id="svg2"
   version="1.1"><metadata
     id="metadata8"><rdf:RDF><cc:Work
         rdf:about=""><dc:format>image/svg+xml</dc:format><dc:type
           rdf:resource="http://purl.org/dc/dcmitype/StillImage" /></cc:Work></rdf:RDF></metadata><defs
     id="defs6" /><g
     transform="matrix(1.3333333,0,0,-1.3333333,0,744.70667)"
     id="g10"><g
       transform="scale(0.1)"
       id="g12"><path
         id="path14"
         style="fill:#80cb2a;fill-opacity:1;fill-rule:nonzero;stroke:none"
         d="M 8622.23,0 H 0 V 952.18 H 8622.23 V 0" /><path
         id="path16"
         style="fill:#ffffff;fill-opacity:1;fill-rule:nonzero;stroke:none"
         d="m 322.637,621.379 h -46.746 v 67.461 h 187 V 621.379 H 404.785 L 476.25,390.289 585.117,646.09 h 40.071 l 108.867,-255.801 66.785,231.09 h -60.11 v 67.461 h 187.004 v -67.461 h -46.75 L 762.773,244.699 H 720.691 L 603.145,515.18 484.934,244.699 h -42.082 l -120.215,376.68" /><path
         id="path18"
         style="fill:#ffffff;fill-opacity:1;fill-rule:nonzero;stroke:none"
         d="m 967.773,316.82 h 50.097 v 304.559 h -50.097 v 67.461 h 180.337 v -67.461 h -54.77 V 505.172 h 203.03 v 116.207 h -54.77 v 67.461 h 180.33 v -67.461 h -50.08 V 316.82 h 50.08 V 249.371 H 1241.6 v 67.449 h 54.77 V 439.051 H 1093.34 V 316.82 h 54.77 V 249.371 H 967.773 v 67.449" /><path
         id="path20"
         style="fill:#ffffff;fill-opacity:1;fill-rule:nonzero;stroke:none"
         d="m 1850.02,469.109 c 0,91.493 -62.12,157.621 -146.93,157.621 -85.49,0 -147.61,-65.46 -147.61,-157.621 0,-91.5 62.12,-157.629 147.61,-157.629 84.81,0 146.93,65.461 146.93,157.629 z m -372.68,0 c 0,128.903 93.5,227.743 227.08,227.743 132.9,0 223.73,-99.512 223.73,-227.743 0,-128.91 -93.49,-227.75 -227.07,-227.75 -132.91,0 -223.74,99.52 -223.74,227.75" /><path
         id="path22"
         style="fill:#ffffff;fill-opacity:1;fill-rule:nonzero;stroke:none"
         d="m 1983.57,316.82 h 50.09 v 304.559 h -50.09 v 67.461 h 183.67 v -67.461 h -58.11 V 316.16 h 120.89 v 62.11 h 72.79 V 249.371 h -319.24 v 67.449" /><path
         id="path24"
         style="fill:#ffffff;fill-opacity:1;fill-rule:nonzero;stroke:none"
         d="m 2349.55,316.82 h 50.09 v 304.559 h -50.09 v 67.461 h 327.93 V 563.281 h -72.14 v 58.77 H 2475.11 V 504.5 h 132.91 V 440.391 H 2475.11 V 316.16 h 130.91 v 58.77 h 72.12 V 249.371 h -328.59 v 67.449" /><path
         id="path26"
         style="fill:#ffffff;fill-opacity:1;fill-rule:nonzero;stroke:none"
         d="m 2726.88,343.539 c 0,31.391 18.71,52.102 46.09,52.102 29.38,0 48.08,-22.039 48.08,-43.422 0,-10.68 -2,-18.699 -6.01,-26.699 16.03,-11.36 40.74,-18.711 69.46,-18.711 48.09,0 78.81,21.371 78.81,59.441 0,36.059 -36.73,53.441 -80.81,68.801 -81.48,29.379 -138.92,55.429 -138.92,136.91 0,70.129 56.77,124.891 145.6,124.891 82.15,0 145.6,-42.082 145.6,-94.84 0,-31.391 -19.37,-49.422 -44.75,-49.422 -30.72,0 -48.09,22.711 -48.09,44.75 0,10.691 2.01,15.359 4.67,20.699 -12.02,7.352 -30.72,13.352 -58.1,13.352 -43.41,0 -68.79,-22.032 -68.79,-54.09 0,-36.059 36.74,-52.102 80.81,-68.121 78.82,-28.051 138.25,-55.43 138.25,-136.918 0,-83.481 -64.79,-130.903 -154.94,-130.903 -86.83,0 -156.96,48.762 -156.96,102.18" /><path
         id="path28"
         style="fill:#ffffff;fill-opacity:1;fill-rule:nonzero;stroke:none"
         d="m 3474.22,469.109 c 0,91.493 -62.11,157.621 -146.93,157.621 -85.49,0 -147.6,-65.46 -147.6,-157.621 0,-91.5 62.11,-157.629 147.6,-157.629 84.82,0 146.93,65.461 146.93,157.629 z m -372.68,0 c 0,128.903 93.51,227.743 227.08,227.743 132.91,0 223.74,-99.512 223.74,-227.743 0,-128.91 -93.5,-227.75 -227.08,-227.75 -132.91,0 -223.74,99.52 -223.74,227.75" /><path
         id="path30"
         style="fill:#ffffff;fill-opacity:1;fill-rule:nonzero;stroke:none"
         d="m 3597.76,316.82 h 52.09 l 14.03,304.559 h -54.77 v 67.461 h 120.23 l 134.91,-244.449 134.91,244.449 h 119.54 v -67.461 h -54.76 l 14.03,-304.559 h 52.09 v -67.449 h -180.32 v 67.449 h 52.75 l -8.68,226.418 -125.56,-220.398 h -10.02 l -125.55,220.398 -8.69,-226.418 h 52.76 v -67.449 h -178.99 v 67.449" /><path
         id="path32"
         style="fill:#ffffff;fill-opacity:1;fill-rule:nonzero;stroke:none"
         d="m 4176.79,316.82 h 50.09 v 304.559 h -50.09 v 67.461 h 327.93 V 563.281 h -72.13 v 58.77 H 4302.35 V 504.5 h 132.9 v -64.109 h -132.9 V 316.16 h 130.9 v 58.77 h 72.13 V 249.371 h -328.59 v 67.449" /><path
         id="path34"
         style="fill:#ffffff;fill-opacity:1;fill-rule:nonzero;stroke:none"
         d="M 4832.61,552.59 V 316.82 h 54.77 v -67.449 h -178.33 v 67.449 h 50.1 v 304.559 h -50.1 v 67.461 h 114.21 l 216.4,-275.828 v 208.367 h -54.77 v 67.461 h 176.32 v -67.461 h -48.08 V 248.711 l -40.75,-1.34 -239.77,305.219" /><path
         id="path36"
         style="fill:#ffffff;fill-opacity:1;fill-rule:nonzero;stroke:none"
         d="m 5246.67,409.672 v 211.707 h -48.09 v 67.461 h 176.32 v -67.461 h -52.75 V 413.672 c 0,-67.453 34.05,-103.524 90.15,-103.524 56.78,0 90.83,32.731 90.83,100.852 v 210.379 h -52.75 v 67.461 h 174.32 v -67.461 h -48.1 V 411 c 0,-114.879 -67.45,-169.641 -164.3,-169.641 -98.17,0 -165.63,54.762 -165.63,168.313" /><path
         id="path38"
         style="fill:#ffffff;fill-opacity:1;fill-rule:nonzero;stroke:none"
         d="m 5752.9,316.82 h 54.77 v 306.571 h -81.48 v -69.469 h -71.46 V 688.84 h 381.35 V 553.922 h -71.46 v 69.469 h -81.49 V 316.82 h 54.77 v -67.449 h -185 v 67.449" /><path
         id="path40"
         style="fill:#ffffff;fill-opacity:1;fill-rule:nonzero;stroke:none"
         d="m 6341.28,553.262 c 0,46.078 -38.07,68.117 -98.85,68.117 H 6201.7 V 480.461 c 8.01,-0.672 18.7,-1.34 42.74,-1.34 56.77,0 96.84,28.059 96.84,74.141 z M 6076.13,316.82 h 50.1 v 304.559 h -50.1 v 67.461 h 170.32 c 100.84,0 172.97,-43.41 172.97,-132.91 0,-56.77 -34.72,-100.18 -82.81,-119.559 l 67.45,-119.551 h 50.09 v -67.449 h -101.51 l -88.17,166.981 c -9.34,-0.68 -18.02,-1.34 -26.71,-1.34 -14.02,0 -26.72,0 -36.06,0.66 V 316.82 h 54.76 v -67.449 h -180.33 v 67.449" /><path
         id="path42"
         style="fill:#ffffff;fill-opacity:1;fill-rule:nonzero;stroke:none"
         d="m 6490.2,316.82 h 53.42 v 304.559 h -53.42 v 67.461 h 182.33 V 621.379 H 6619.1 V 316.82 h 53.43 V 249.371 H 6490.2 v 67.449" /><path
         id="path44"
         style="fill:#ffffff;fill-opacity:1;fill-rule:nonzero;stroke:none"
         d="m 6810.76,316.82 h 54.77 v 306.571 h -81.49 v -69.469 h -71.46 V 688.84 h 381.36 V 553.922 h -71.47 v 69.469 H 6941 V 316.82 h 54.76 v -67.449 h -185 v 67.449" /><path
         id="path46"
         style="fill:#ffffff;fill-opacity:1;fill-rule:nonzero;stroke:none"
         d="m 7133.99,316.82 h 53.43 v 304.559 h -53.43 v 67.461 h 182.33 v -67.461 h -53.43 V 316.82 h 53.43 v -67.449 h -182.33 v 67.449" /><path
         id="path48"
         style="fill:#ffffff;fill-opacity:1;fill-rule:nonzero;stroke:none"
         d="m 7744.41,469.109 c 0,91.493 -62.12,157.621 -146.93,157.621 -85.49,0 -147.61,-65.46 -147.61,-157.621 0,-91.5 62.12,-157.629 147.61,-157.629 84.81,0 146.93,65.461 146.93,157.629 z m -372.67,0 c 0,128.903 93.49,227.743 227.08,227.743 132.9,0 223.73,-99.512 223.73,-227.743 0,-128.91 -93.5,-227.75 -227.07,-227.75 -132.91,0 -223.74,99.52 -223.74,227.75" /><path
         id="path50"
         style="fill:#ffffff;fill-opacity:1;fill-rule:nonzero;stroke:none"
         d="M 8001.52,552.59 V 316.82 h 54.77 v -67.449 h -178.32 v 67.449 h 50.09 v 304.559 h -50.09 v 67.461 h 114.21 l 216.38,-275.828 v 208.367 h -54.76 v 67.461 h 176.32 v -67.461 h -48.09 V 248.711 l -40.74,-1.34 -239.77,305.219" /><path
         id="path52"
         style="fill:#66391b;fill-opacity:1;fill-rule:nonzero;stroke:none"
         d="m 2030.73,2473.35 c 0,96.74 4.47,135.43 4.47,224.71 l -2.98,409.26 c 0,32.74 0,65.48 -1.49,99.71 l -1.48,80.36 h -37.21 c -41.67,0 -41.67,11.9 -41.67,50.6 0,19.34 -8.92,56.55 49.11,56.55 h 107.15 c 13.39,0 20.83,0 32.75,-28.27 75.88,-184.54 202.39,-537.24 288.7,-699.46 0,92.27 5.95,296.16 5.95,386.94 l -1.48,241.08 h -34.23 c -41.67,0 -41.67,11.91 -41.67,50.6 0,19.34 -8.94,56.55 49.1,56.55 h 180.08 c 17.85,-1.48 28.27,-10.42 28.27,-25.3 0,-62.5 0,-80.36 -61.01,-80.36 h -7.45 v -138.4 c 0,-11.91 -1.48,-23.81 -1.48,-35.72 0,-23.81 1.48,-47.62 1.48,-69.95 -1.48,-17.85 -1.48,-35.71 -1.48,-53.57 l -2.98,-46.13 v -19.35 c 0,-31.25 -1.48,-61.01 -1.48,-92.26 v -17.87 l 4.46,-171.14 c 0,-66.97 1.48,-113.1 1.48,-162.22 0,-20.83 -1.48,-32.73 -1.48,-68.45 v -20.83 c 0,-32.75 -16.37,-34.23 -47.63,-34.23 -19.34,0 -50.59,7.44 -72.92,59.53 -78.87,186.02 -171.14,375.02 -269.36,622.06 1.49,-78.88 1.49,-148.82 1.49,-217.27 v -357.17 h 43.16 c 17.86,-1.49 28.28,-10.42 28.28,-25.31 0,-41.66 0,-78.86 -31.26,-78.86 -13.39,0 -28.27,-2.98 -32.74,-2.98 h 7.45 -159.24 c -41.67,0 -41.67,11.9 -41.67,50.59 0,19.35 -8.93,56.56 49.11,56.56 h 11.9" /><path
         id="path54"
         style="fill:#66391b;fill-opacity:1;fill-rule:nonzero;stroke:none"
         d="m 2895.38,2751.64 c 52.09,0 96.74,-1.49 151.8,-1.49 l -72.92,410.75 c -1.49,1.48 -2.98,4.46 -2.98,11.9 -1.49,-4.46 -2.98,-8.93 -2.98,-11.9 z M 2716.8,2458.46 c 4.47,19.35 10.42,52.09 14.88,83.34 l 10.42,44.65 c 0,2.98 2.98,11.91 2.98,13.39 l 47.62,191.98 c 2.97,5.96 4.46,10.42 5.95,16.37 l 108.64,541.7 c 10.42,38.7 32.74,44.65 52.09,44.65 14.88,0 66.97,0 75.89,-44.65 l 111.61,-547.65 c 0,-1.49 1.5,-5.95 1.5,-7.44 l 2.97,-5.95 c 49.11,-212.82 65.49,-285.74 71.43,-315.5 h 26.79 c 17.86,-1.49 28.28,-10.42 28.28,-25.31 0,-41.66 0,-78.86 -31.26,-78.86 l -159.23,-2.98 h -10.42 c -41.67,0 -41.67,11.9 -41.67,50.59 0,19.35 -8.92,56.56 49.11,56.56 h 25.31 c -4.48,19.34 -8.94,47.62 -17.86,95.24 l -20.84,71.44 c -19.35,1.48 -26.79,1.48 -35.72,1.48 l -169.65,1.5 c -7.44,-31.26 -10.41,-59.54 -13.39,-75.9 v 1.48 c -14.89,-61.01 -17.86,-89.29 -20.84,-110.13 h 28.28 c 17.86,-1.48 28.27,-10.42 28.27,-25.29 0,-41.67 0,-71.43 -31.25,-71.43 l -144.36,-2.98 h -10.42 c -40.17,0 -41.66,11.9 -41.66,46.13 0,14.88 -8.93,53.57 49.11,53.57 h 7.44" /><path
         id="path56"
         style="fill:#66391b;fill-opacity:1;fill-rule:nonzero;stroke:none"
         d="m 3510.02,2473.35 1.48,175.6 c 0,17.86 0,35.73 -1.48,53.59 l 2.98,324.42 v 86.31 c 0,16.38 0,34.23 -1.5,52.09 l -2.97,37.21 c 0,10.42 1.49,25.29 2.97,34.22 0,8.93 -4.46,26.79 -4.46,41.67 -13.39,0 -26.79,-1.49 -37.21,-1.49 -32.73,0 -68.45,1.49 -104.17,1.49 v -69.95 c -1.48,-17.85 -10.42,-28.27 -25.3,-28.27 -65.48,0 -87.8,0 -87.8,61.02 v 2.98 c -1.49,0 -1.49,-4.47 -1.49,-8.94 v 61.02 c -1.49,7.44 -1.49,16.37 -1.49,28.28 0,13.39 -4.46,53.57 8.94,59.52 5.94,8.93 -10.42,8.93 77.38,8.93 38.69,0 142.87,-5.95 251.5,-5.95 86.32,0 98.23,2.98 248.53,2.98 32.74,0 28.28,-25.31 28.28,-61.02 0,-7.44 0,-13.4 -1.5,-19.35 v -101.2 c -1.48,-17.85 -10.41,-28.27 -25.29,-28.27 -41.67,0 -86.32,0 -86.32,31.25 0,10.42 -2.97,26.79 -2.97,31.25 v -5.95 44.64 h -7.45 c -35.71,0 -56.54,2.98 -68.45,2.98 l -47.62,-2.98 c 0,-95.24 2.98,-156.26 5.95,-221.73 l -4.47,-363.12 c -1.48,-49.11 0,-98.22 -1.48,-147.33 0,-25.31 1.48,-50.6 1.48,-75.9 h 43.17 c 17.85,-1.49 28.27,-10.42 28.27,-25.31 0,-62.5 0,-80.36 -61.02,-80.36 l -144.35,-1.48 h -10.42 c -41.67,0 -41.67,11.9 -41.67,50.59 0,19.35 -8.93,56.56 49.11,56.56 h 20.84" /><path
         id="path58"
         style="fill:#66391b;fill-opacity:1;fill-rule:nonzero;stroke:none"
         d="m 4155.89,3394.54 c 17.85,-1.49 28.27,-10.42 28.27,-25.29 0,-62.51 0,-80.38 -61.02,-80.38 h -8.92 V 2693.6 c 0,-126.49 32.73,-254.48 133.93,-254.48 148.82,0 141.38,148.82 141.38,244.06 v 174.12 c 0,66.98 0,159.24 2.98,242.58 v 188.99 h -23.82 c -41.66,0 -41.66,11.92 -41.66,50.61 0,19.35 -8.93,56.55 49.1,56.55 h 180.08 c 17.85,-1.49 28.27,-10.42 28.27,-25.3 0,-62.5 0,-80.36 -61.01,-80.36 h -8.93 v -110.13 c 0,-150.31 -8.93,-302.1 -8.93,-452.41 0,-23.81 1.49,-49.11 1.49,-77.38 0,-160.74 -66.97,-311.04 -244.06,-315.5 -248.53,0 -267.88,223.22 -267.88,382.46 0,49.11 -2.97,151.8 -2.97,247.04 v 322.94 h -23.82 c -41.67,0 -41.67,11.9 -41.67,50.6 0,19.34 -8.93,56.55 49.11,56.55 h 180.08" /><path
         id="path60"
         style="fill:#66391b;fill-opacity:1;fill-rule:nonzero;stroke:none"
         d="m 4821.1,2873.67 h 20.83 c 194.95,0 205.37,139.89 205.37,209.84 0,162.21 -147.33,227.69 -209.83,227.69 -5.96,0 -11.9,1.49 -16.37,-8.93 z m -7.44,529.8 c 211.32,0 355.68,-125.01 355.68,-324.43 0,-159.23 -83.34,-239.6 -169.66,-255.97 72.93,-23.8 156.26,-102.68 156.26,-221.73 0,-65.48 -1.49,-183.05 99.71,-183.05 h 8.93 c 17.86,0 25.3,-2.98 25.3,-16.38 v -35.71 c 0,-16.37 -11.91,-23.81 -41.67,-23.81 -130.96,0 -186.02,66.96 -200.91,212.81 -16.36,154.77 -110.12,220.26 -180.06,233.65 h -35.73 v -319.97 h 43.17 c 17.85,-1.48 28.27,-10.42 28.27,-25.3 0,-62.5 0,-80.36 -61.02,-80.36 l -144.35,-1.48 h -10.42 c -41.67,0 -41.67,11.9 -41.67,50.59 0,19.35 -8.93,56.55 49.11,56.55 h 22.32 v 827.44 h -28.27 c -41.67,0 -41.67,11.91 -41.67,50.6 0,19.35 -8.92,56.55 49.11,56.55 h 117.57" /><path
         id="path62"
         style="fill:#66391b;fill-opacity:1;fill-rule:nonzero;stroke:none"
         d="m 5511.61,2751.64 c 52.09,0 96.74,-1.49 151.8,-1.49 l -72.92,410.75 c -1.49,1.48 -2.98,4.46 -2.98,11.9 -1.48,-4.46 -2.98,-8.93 -2.98,-11.9 z m -178.58,-293.18 c 4.47,19.35 10.42,52.09 14.88,83.34 l 10.42,44.65 c 0,2.98 2.98,11.91 2.98,13.39 l 47.62,191.98 c 2.97,5.96 4.46,10.42 5.95,16.37 l 108.64,541.7 c 10.42,38.7 32.74,44.65 52.09,44.65 14.88,0 66.97,0 75.89,-44.65 l 111.62,-547.65 c 0,-1.49 1.49,-5.95 1.49,-7.44 l 2.97,-5.95 c 49.11,-212.82 65.49,-285.74 71.43,-315.5 h 26.79 c 17.86,-1.49 28.28,-10.42 28.28,-25.31 0,-41.66 0,-78.86 -31.26,-78.86 l -159.23,-2.98 h -10.42 c -41.67,0 -41.67,11.9 -41.67,50.59 0,19.35 -8.92,56.56 49.12,56.56 h 25.3 c -4.47,19.34 -8.94,47.62 -17.86,95.24 l -20.84,71.44 c -19.35,1.48 -26.79,1.48 -35.72,1.48 l -169.65,1.5 c -7.44,-31.26 -10.41,-59.54 -13.39,-75.9 v 1.48 c -14.89,-61.01 -17.86,-89.29 -20.84,-110.13 h 28.28 c 17.86,-1.48 28.27,-10.42 28.27,-25.29 0,-41.67 0,-71.43 -31.25,-71.43 l -144.36,-2.98 h -10.42 c -40.17,0 -41.66,11.9 -41.66,46.13 0,14.88 -8.93,53.57 49.11,53.57 h 7.44" /><path
         id="path64"
         style="fill:#66391b;fill-opacity:1;fill-rule:nonzero;stroke:none"
         d="m 6005.69,2473.35 v 25.3 c 2.97,32.73 2.97,78.87 2.97,113.1 v 569.98 c -1.48,22.32 -1.48,44.64 -1.48,66.97 v 46.13 h -25.3 c -40.18,0 -41.67,11.91 -41.67,46.13 0,14.89 -8.93,53.58 49.11,53.58 h 180.07 c 17.86,-1.49 28.28,-10.42 28.28,-25.29 0,-61.02 -7.45,-77.4 -66.98,-74.42 h -8.92 c 0,-89.29 2.98,-178.58 2.98,-266.38 0,-19.35 -1.49,-38.7 -1.49,-58.04 v -166.68 c 0,-13.39 0,-28.27 1.49,-43.16 v -123.52 c 0,-40.18 -2.98,-110.13 -2.98,-159.24 61.01,0 107.15,4.46 157.75,4.46 h 28.27 c 10.42,0 29.77,0 52.09,1.5 v 53.57 c 0,41.67 10.41,41.67 53.58,41.67 23.81,0 61.01,8.93 61.01,-49.11 v -135.43 c 0,-16.37 -10.42,-28.27 -25.3,-28.27 -23.81,0 -47.62,0 -282.75,2.98 h -1.5 c -7.44,-1.5 -13.39,-1.5 -20.83,-1.5 h -7.44 c -5.96,0 -5.96,-1.48 -5.96,-1.48 h -148.81 c -41.67,0 -41.67,11.9 -41.67,50.59 0,19.35 -8.93,56.56 49.11,56.56 h 16.37" /><path
         id="path66"
         style="fill:#80cb2a;fill-opacity:1;fill-rule:nonzero;stroke:none"
         d="m 4191.39,4031.59 c -28.06,-5.25 -56.94,-7.4 -85.76,-8.43 -28.95,-1.32 -57.74,0.85 -86.91,2.31 -28.86,2.44 -58.08,5.96 -86.9,11.35 -28.42,6.7 -57.99,11.1 -85.93,19.91 -28.26,8.91 -57.28,16.14 -84.66,28.29 -27.14,11.88 -55.6,22.22 -81.86,36.54 -26.2,14.79 -52.71,29.17 -78.86,44.39 l -73.7,53.19 c -12.83,8.46 -23.95,18.59 -34.95,29.06 l -33.55,30.89 -33.5,31.45 c -10.43,10.93 -19.82,22.91 -29.7,34.36 -19.38,23.45 -39.49,46.43 -58.06,70.51 l -49.67,76.33 -24.53,38.72 -20.04,40.41 -39.28,81.9 c -12.9,27.32 -20.69,56.14 -31.46,83.98 l -59.16,180.06 c 0,0 257.12,68.41 293.18,73.75 17.69,3.76 36.17,4.69 54.47,6.12 18.4,1.22 36.32,3.6 55.21,1.91 l 55.3,-2.64 c 18.56,-0.7 36.67,-5.63 54.89,-8.62 17.84,-3.88 36.59,-5.28 53.78,-11.59 l 52.23,-17.72 c 35.54,-10.29 65.87,-29.85 98.21,-45.6 32.95,-15.47 59.08,-38.9 88.31,-58.82 13.56,-10.76 29.06,-20.01 41.21,-31.99 l 37.17,-35.94 c 23.88,-24.26 50.48,-46.42 70.01,-74.08 l 62.03,-78.91 c 19.84,-26.55 35.43,-55.89 53.25,-83.69 16.55,-28.47 34.9,-55.62 49.03,-84.79 l 41.02,-88.68 c 12.55,-29.93 28.62,-57.98 38.29,-88.9 21.2,-61.35 41.88,-122.18 59.73,-183.49 -39.07,51.71 -74.86,104.21 -110.28,156.22 -17.24,26.53 -37.74,50.47 -56.41,75.48 l -56.78,74.08 c -18.43,25.03 -40.76,46.56 -60.38,69.92 -20.58,22.69 -39.32,47.35 -61.17,67.96 l -64.97,62.16 c -20.38,21.77 -45.17,37.81 -67.75,56.1 l -34.25,26.49 c -11.45,8.94 -24.24,14.77 -36.22,22.7 -24.71,13.44 -47.52,31.31 -73.76,39.88 -25.24,9.88 -49.27,24.31 -75.68,29.22 l -38.55,10.65 c -12.78,3.77 -26.26,3.97 -39.07,6.21 -13.11,1.44 -25.87,4.86 -39.05,4.67 l -39.5,0.34 c -13.16,1.12 -26.31,-1.71 -39.49,-2.6 -13.31,-1.42 -26.49,-1.48 -39.89,-4.79 -13.38,-2.84 -26.42,-4.69 -40.06,-7.98 l -40.58,-10.77 -44.29,-13.36 -25.41,-7.48 c -12.54,-3.03 -31.36,-6.26 -46.87,-7.68 l 92.12,123.65 24.18,-74.82 c 8.34,-24.95 14.34,-50.99 24.52,-74.91 l 31.11,-71.83 14.76,-36.38 18.62,-34 37.28,-68.35 c 14,-21.64 29.4,-42.47 43.92,-63.9 l 22.26,-32.05 25.16,-29.35 c 17.43,-19.04 32.43,-40.99 51.71,-58.11 l 56.59,-54.41 61.59,-49.12 c 20.9,-16.41 44.14,-29.41 66,-44.93 21.92,-15.41 46.46,-26.06 69.5,-40.23 23.44,-13.96 48.82,-23.61 73.35,-35.71 25.21,-10.65 50.87,-20.19 76.62,-30.44 26.2,-8.8 52.68,-17.71 79.55,-24.9 27.21,-8.11 54.47,-13.78 82.73,-19.17" /><path
         id="path68"
         style="fill:#80cb2a;fill-opacity:1;fill-rule:nonzero;stroke:none"
         d="m 5550.23,3922.72 c -6.19,38.05 -14.08,75.15 -24.06,111.9 -9.65,36.64 -19.71,73.05 -32.3,108.39 -24.54,70.99 -52.47,140.14 -87.39,205.26 -17.53,32.45 -34.88,64.7 -54.13,95.67 -19.34,31.07 -40.36,60.91 -61.85,89.77 l -33.64,42.78 -35.36,40.92 c -24.27,26.32 -48.82,52.5 -75.46,76.33 -25.34,25.19 -53.52,47.4 -80.98,69.97 -28.46,21.19 -56.88,42.92 -87,61.84 -29.02,20.37 -60.95,36.46 -91.66,54.75 -31.95,15.38 -62.53,33.68 -95.88,46.89 l -49.06,21.53 -50.53,18.51 c -32.86,13.54 -68.06,22.64 -102.12,33.7 -34.28,10.76 -69.79,17.82 -104.38,27.7 l -106.42,21.58 114.16,82.4 c -1.27,-13.03 -2.85,-33.38 -3.52,-51 -1.21,-18.25 -0.72,-37.11 -1.38,-55.52 0.66,-37.38 2.2,-74.83 6.01,-112.16 1.29,-18.88 4.08,-37.39 6.74,-56.09 3.03,-18.53 4.83,-37.22 8.7,-55.57 8.21,-36.64 13.96,-74.04 25.77,-109.62 l 15.24,-54.35 19.59,-52.79 c 11.68,-35.93 28.92,-69.01 44.73,-103.31 14.27,-35.03 35.87,-65.86 54.45,-98.7 17.63,-33.8 42.42,-62.68 64.12,-93.69 20.68,-32.01 48.01,-58.77 73.16,-87.7 12.81,-13.94 24.84,-28.92 38.56,-42.47 l 42.79,-38.84 c 28.3,-26.05 55.62,-54.18 88.3,-76 l 96.1,-70.9 98.49,-72.48 48.73,-40.61 c 16.26,-13.36 32.42,-26.75 46.63,-42.19 l 44.23,-44.23 40.46,-47.64 c 24.29,-33.63 49.63,-67.38 63.19,-106.55 -23.69,33.23 -54.67,59.61 -85.17,85.2 l -47.4,36.5 -50.04,32.79 c -33.15,21.87 -68.28,40.27 -101.55,60.38 l -109.06,54.46 -109.51,59.83 c -37.84,18.7 -71.64,44.74 -106.49,69.06 l -52.16,37.44 c -16.61,13.31 -32.09,28.58 -48.34,42.76 -31.59,28.88 -64.85,56.85 -91.78,90.48 -27.67,33.22 -59.2,63.94 -82.25,100.81 -24.17,36.05 -51.23,70.55 -70.8,109.64 -21.35,37.97 -42.73,76.29 -58.44,116.85 l -25.82,60.15 -20.69,62.15 c -14.62,41.09 -22.96,83.96 -33.72,126.24 -5.03,21.29 -7.71,42.95 -11.83,64.14 -3.79,21.34 -6.85,43.06 -8.64,64.83 -5.14,43.27 -7.24,86.82 -8.21,130.75 0.26,21.87 -0.56,43.69 1.02,66.16 1.22,22.84 2.17,43.11 5.97,70.31 l 13.65,103.79 100.52,-21.78 c 39.08,-8.16 78.28,-16.14 117.36,-25.18 38.6,-10.69 77.72,-20.32 115.82,-33.04 37.97,-13.55 76.54,-25.24 113.7,-41.55 l 55.87,-23.23 54.48,-27.08 c 36.91,-16.97 71.23,-39.13 106.63,-58.85 33.56,-23.05 68.5,-44 100.05,-69.69 32.89,-23.91 63.61,-50.99 93.8,-78.27 29.07,-28.35 58.44,-56.25 84.87,-87.16 27.24,-30.1 51.53,-62.5 75.51,-94.98 l 34.08,-49.77 30.74,-51.87 c 19.45,-35.37 37.83,-70.79 53.95,-107.2 15.91,-36.51 31.3,-73.21 43.4,-110.88 12.4,-37.73 22.61,-75.76 31.67,-113.92 8.66,-38.36 16.37,-76.81 20.77,-115.63 5.07,-38.8 8.19,-77.57 9.33,-116.24 0.51,-38.78 0.48,-77.54 -4.32,-115.88" /><path
         id="path70"
         style="fill:#80cb2a;fill-opacity:1;fill-rule:nonzero;stroke:none"
         d="m 6198.93,3769.94 c 24.45,29.75 47.46,60.08 68.61,91.56 21.15,31.31 42.07,62.79 60.31,95.61 37.54,64.99 71.33,131.57 97.36,200.72 12.94,34.5 26,68.84 36.6,103.91 10.81,34.71 19.52,70.19 27.14,105.62 l 9.96,53.24 7.77,53.32 c 4.02,35.88 7.57,71.54 7.94,107.42 2.51,35.67 0.53,71.25 -0.48,106.81 -2.81,35.53 -4.98,71.01 -10.51,106.29 -3.61,35.27 -12.61,70.01 -18.82,105.01 -9.48,34.4 -15.71,69.48 -27.89,103.1 l -15.95,51.09 -18.94,50.13 c -11.5,33.79 -27.48,66.45 -41.85,99.25 -14.32,33.02 -32.39,64.55 -47.68,97.12 l -53.65,94.41 137.27,-32 c -10.85,-7.41 -27.19,-19.79 -40.91,-31.03 -14.6,-10.76 -28.43,-23.59 -42.75,-35.42 -27.79,-24.77 -55,-50.56 -80.51,-78.3 -13.55,-13.26 -25.54,-27.39 -37.81,-41.78 -11.97,-14.38 -25.08,-27.96 -36.48,-42.92 -22.05,-30.49 -46.64,-59.31 -65.43,-91.56 l -31.12,-47.22 -26.79,-49.47 c -19.46,-32.38 -33.21,-67.27 -48.56,-101.54 -17.05,-33.86 -26.25,-70.31 -38.71,-105.93 -13.75,-35.53 -19.11,-72.91 -28.5,-109.79 -10.35,-36.7 -12.89,-74.68 -17.98,-112.74 -2.28,-18.99 -5.61,-38.04 -6.94,-57.07 l -1.17,-57.78 c -1.05,-38.55 -4.1,-77.56 0.86,-116.32 l 9.54,-119.19 10.09,-121.89 1.58,-63.37 c 0.47,-20.96 1.04,-41.98 -1.13,-62.87 l -4.49,-62.35 -9.32,-61.85 c -9.52,-40.46 -18.05,-81.78 -38.79,-117.79 9.55,39.78 9.28,80.51 8.18,120.33 l -3.41,59.74 -8.11,59.38 c -5.46,39.36 -14.57,77.74 -21.42,116 l -30.4,118.02 -26.93,121.65 c -10.74,41.1 -13.34,83.63 -18.19,125.95 l -5.83,63.89 c -0.8,21.36 0.41,42.94 0.6,64.31 0.9,42.95 0.02,86.31 7.89,129.08 6.98,42.35 9.32,86.42 21.94,128.07 11.34,41.93 19.63,84.93 36.23,125.31 14.41,41.1 29.31,82.26 49.74,120.91 l 28.43,58.92 33.04,56.4 c 21.56,38.23 48.26,72.44 73.24,108.4 12.66,17.76 26.9,33.86 40.72,50.99 13.3,17.02 27.74,33.46 42.97,49.08 29.16,32.29 60.74,62.63 92.99,92.2 16.95,14.13 32.56,29.06 50.42,42.61 18.37,14.24 34.42,26.56 57.08,41.73 l 87.33,57.99 49.64,-90.17 c 19.48,-34.96 39.34,-69.53 58.11,-104.93 17.34,-36.4 35.88,-71.84 51.19,-109.22 14.96,-37.58 31.33,-74.03 43.48,-112.82 l 19.2,-57.41 15.37,-59.1 c 11.46,-38.76 17.15,-79.13 25.58,-118.95 4.61,-40.39 11.7,-80.32 13.05,-121.36 3.69,-40.52 3.59,-81.09 2.8,-121.85 -2.45,-40.51 -4.03,-81.09 -9.93,-121.14 -4.85,-40.39 -13.3,-80.21 -22.03,-119.41 l -15.23,-58.47 -18.89,-57.41 c -13.83,-37.72 -28.47,-75.05 -45.29,-110.82 -17.07,-36.41 -34.69,-71.83 -55.2,-105.83 -20.37,-33.91 -42.27,-66.76 -65.14,-98.74 -22.93,-31.58 -47.03,-62.55 -73.59,-91.42 -25.72,-29.3 -52.92,-57.15 -81.42,-83.53 -28.78,-25.88 -58.06,-51.29 -90.08,-72.81" /><path
         id="path72"
         style="fill:#80cb2a;fill-opacity:1;fill-rule:nonzero;stroke:none"
         d="m 2080.19,1830.81 c 0,-84.46 67.99,-151.75 151.73,-151.75 85.9,0 151.75,67.29 151.75,151.75 0,84.46 -65.85,151.75 -151.75,151.75 -83.74,0 -151.73,-67.29 -151.73,-151.75 z m -144.59,0 c 0,159.62 135.28,289.89 296.32,289.89 163.21,0 296.34,-130.27 296.34,-289.89 0,-159.62 -133.13,-289.89 -296.34,-289.89 -161.04,0 -296.32,130.27 -296.32,289.89" /><path
         id="path74"
         style="fill:#80cb2a;fill-opacity:1;fill-rule:nonzero;stroke:none"
         d="m 2852.46,1979.7 h -108.08 c -7.88,0 -14.32,-6.45 -14.32,-14.32 v -120.26 c 0,-7.88 6.44,-14.31 14.32,-14.31 h 108.08 c 57.27,0 78.74,35.07 78.74,73.72 0,42.95 -21.47,75.17 -78.74,75.17 z m -264.84,113.08 c 0,9.31 7.87,17.19 17.17,17.19 h 255.54 c 143.17,0 209.02,-93.06 209.02,-204.01 0,-73.73 -30.79,-142.44 -97.36,-178.94 -7.15,-3.58 -8.58,-12.17 -4.28,-18.61 l 102.35,-142.45 c 4.3,-6.44 0,-14.31 -7.16,-14.31 h -136.72 c -10.73,0 -20.75,5.72 -27.2,14.31 l -87.32,123.83 c -5.01,7.16 -14.32,11.46 -22.91,11.46 h -44.37 c -7.88,0 -14.32,-6.45 -14.32,-14.32 v -118.1 c 0,-9.31 -7.87,-17.18 -17.18,-17.18 h -108.09 c -9.3,0 -17.17,7.87 -17.17,17.18 v 523.95" /><path
         id="path76"
         style="fill:#80cb2a;fill-opacity:1;fill-rule:nonzero;stroke:none"
         d="m 3530.98,1743.48 c 5.72,9.3 15.74,12.17 25.05,7.88 l 99.5,-43.67 c 7.87,-2.86 11.44,-14.31 6.43,-21.47 -50.82,-87.33 -147.45,-145.3 -256.25,-145.3 -161.05,0 -296.33,130.27 -296.33,289.89 0,159.62 135.28,289.89 296.33,289.89 108.8,0 204.01,-57.98 255.54,-143.88 4.3,-7.15 1.44,-18.6 -6.45,-22.18 l -98.77,-43.67 c -9.31,-5.01 -19.33,-2.14 -25.05,7.16 -27.2,38.66 -73.01,64.43 -125.27,64.43 -83.75,0 -151.75,-67.29 -151.75,-151.75 0,-84.46 68,-151.75 151.75,-151.75 52.97,0 98.07,25.77 125.27,64.42" /><path
         id="path78"
         style="fill:#80cb2a;fill-opacity:1;fill-rule:nonzero;stroke:none"
         d="m 4090.66,2092.78 c 0,9.31 7.88,17.19 17.18,17.19 h 108.8 c 9.31,0 17.18,-7.88 17.18,-17.19 v -523.95 c 0,-9.31 -7.87,-17.18 -17.18,-17.18 h -108.8 c -9.3,0 -17.18,7.87 -17.18,17.18 v 176.08 c 0,7.87 -6.44,14.32 -14.31,14.32 h -198.99 c -7.88,0 -14.31,-6.45 -14.31,-14.32 v -176.08 c 0,-9.31 -7.88,-17.18 -17.18,-17.18 h -108.09 c -9.3,0 -17.17,7.87 -17.17,17.18 v 523.95 c 0,9.31 7.87,17.19 17.17,17.19 h 108.09 c 9.3,0 17.18,-7.88 17.18,-17.19 V 1907.4 c 0,-7.88 6.43,-14.32 14.31,-14.32 h 198.99 c 7.87,0 14.31,6.44 14.31,14.32 v 185.38" /><path
         id="path80"
         style="fill:#80cb2a;fill-opacity:1;fill-rule:nonzero;stroke:none"
         d="m 4620.29,1762.81 c 7.16,0 11.46,7.16 9.31,13.59 l -50.82,136.72 c -1.44,5.01 -8.59,5.01 -10.03,0 l -51.53,-136.72 c -2.15,-6.43 2.15,-13.59 9.3,-13.59 z m -123.83,331.41 c 3.58,9.3 13.6,15.75 23.62,15.75 h 107.37 c 10.02,0 20.04,-6.45 23.62,-15.75 l 212.59,-526.82 c 2.86,-7.16 -2.15,-15.75 -10.74,-15.75 h -121.68 c -10.02,0 -19.33,6.44 -22.91,15.75 l -20.04,52.25 c -2.86,7.87 -10.73,13.6 -19.33,13.6 h -191.11 c -8.59,0 -16.46,-5.73 -19.32,-13.6 l -20.05,-52.25 c -3.58,-9.31 -12.88,-15.75 -22.9,-15.75 h -121.69 c -8.59,0 -13.6,8.59 -10.74,15.75 l 213.31,526.82" /><path
         id="path82"
         style="fill:#80cb2a;fill-opacity:1;fill-rule:nonzero;stroke:none"
         d="m 5177.83,1979.7 h -108.07 c -7.88,0 -14.32,-6.45 -14.32,-14.32 v -120.26 c 0,-7.88 6.44,-14.31 14.32,-14.31 h 108.07 c 57.27,0 78.74,35.07 78.74,73.72 0,42.95 -21.47,75.17 -78.74,75.17 z M 4913,2092.78 c 0,9.31 7.87,17.19 17.18,17.19 h 255.53 c 143.16,0 209.01,-93.06 209.01,-204.01 0,-73.73 -30.77,-142.44 -97.35,-178.94 -7.16,-3.58 -8.59,-12.17 -4.29,-18.61 l 102.36,-142.45 c 4.29,-6.44 0,-14.31 -7.16,-14.31 h -136.72 c -10.73,0 -20.76,5.72 -27.19,14.31 l -87.34,123.83 c -5.01,7.16 -14.31,11.46 -22.9,11.46 h -44.37 c -7.88,0 -14.32,-6.45 -14.32,-14.32 v -118.1 c 0,-9.31 -7.88,-17.18 -17.18,-17.18 h -108.08 c -9.31,0 -17.18,7.87 -17.18,17.18 v 523.95" /><path
         id="path84"
         style="fill:#80cb2a;fill-opacity:1;fill-rule:nonzero;stroke:none"
         d="m 5709.62,1971.1 h -90.91 c -7.87,0 -14.32,-6.44 -14.32,-14.31 v -252.68 c 0,-7.87 6.45,-14.32 14.32,-14.32 h 90.91 c 85.17,0 130.27,57.27 130.27,141.02 0,83.75 -45.1,140.29 -130.27,140.29 z m -231.2,-419.45 c -9.31,0 -17.18,7.87 -17.18,17.18 v 523.95 c 0,9.31 7.87,17.19 17.18,17.19 h 241.93 c 174.65,0 264.13,-127.41 264.13,-279.16 0,-152.46 -89.48,-279.16 -264.13,-279.16 h -241.93" /><path
         id="path86"
         style="fill:#80cb2a;fill-opacity:1;fill-rule:nonzero;stroke:none"
         d="m 6025.22,1699.1 c -0.72,10.02 8.59,20.04 18.61,20.04 h 96.63 c 16.46,0 20.05,-3.58 28.63,-18.6 10.02,-18.62 39.38,-35.8 89.47,-35.8 53.7,0 70.87,17.89 70.87,34.36 0,23.62 -27.92,37.94 -95.2,60.84 -88.75,29.35 -205.43,72.29 -205.43,187.54 0,106.65 90.91,173.22 218.32,173.22 130.27,0 221.17,-68 228.33,-168.21 0.72,-10.02 -8.58,-20.04 -18.6,-20.04 h -99.51 c -13.59,0 -20.04,6.44 -24.33,19.33 -8.59,23.62 -35.79,45.09 -83.03,45.09 -48.67,0 -68,-19.32 -68,-37.94 0,-22.18 25.76,-33.64 92.34,-56.55 77.3,-27.2 209.01,-73.01 209.01,-195.41 0,-108.8 -94.49,-166.05 -221.89,-166.05 -126.7,0 -226.2,55.83 -236.22,158.18" /></g></g></svg>